<svg width="27" height="26" viewBox="0 0 27 26" fill="none" xmlns="http://www.w3.org/2000/svg">
<path d="M24.5375 8.01258L16.35 1.46258C14.75 0.187584 12.25 0.175084 10.6625 1.45008L2.47501 8.01258C1.30001 8.95008 0.587515 10.8251 0.837515 12.3001L2.41251 21.7251C2.77501 23.8376 4.73751 25.5001 6.87501 25.5001H20.125C22.2375 25.5001 24.2375 23.8001 24.6 21.7126L26.175 12.2876C26.4 10.8251 25.6875 8.95008 24.5375 8.01258ZM14.4375 20.5001C14.4375 21.0126 14.0125 21.4376 13.5 21.4376C12.9875 21.4376 12.5625 21.0126 12.5625 20.5001V16.7501C12.5625 16.2376 12.9875 15.8126 13.5 15.8126C14.0125 15.8126 14.4375 16.2376 14.4375 16.7501V20.5001Z" fill="#292929"/>
</svg>
